<svg id="visual" viewBox="0 0 900 600" width="900" height="600" xmlns="http://www.w3.org/2000/svg" xmlns:xlink="http://www.w3.org/1999/xlink" version="1.1"><g transform="translate(425.4614161416756 279.0185038109028)"><path d="M151 -188.8C175.7 -159.3 161.7 -92.7 170.5 -31.7C179.3 29.3 210.9 84.7 203.4 136C195.9 187.3 149.2 234.6 95.5 247.8C41.8 260.9 -18.9 239.9 -60.9 207.3C-102.8 174.6 -125.9 130.3 -139.2 89.1C-152.5 48 -156 9.9 -155.4 -33.3C-154.8 -76.5 -150 -124.8 -123.4 -153.9C-96.8 -183.1 -48.4 -193 7.4 -201.9C63.2 -210.7 126.4 -218.3 151 -188.8" fill="#4db9da"></path></g></svg>