<svg version="1.1" xmlns:xlink="http://www.w3.org/1999/xlink" xmlns="http://www.w3.org/2000/svg" viewBox="0 0 898.8000000000001 91.2" id="visual" style="max-height: 500px" width="898.8000000000001" height="91.2"><path stroke-linejoin="miter" stroke-linecap="round" fill="#1ba7f2" d="M0 92L15 85.3C30 78.7 60 65.3 90 56.8C120 48.3 150 44.7 180 43C210 41.3 240 41.7 270 50C300 58.3 330 74.7 360 77.5C390 80.3 420 69.7 450 60.7C480 51.7 510 44.3 540 37.3C570 30.3 600 23.7 630 31.3C660 39 690 61 720 65.2C750 69.3 780 55.7 810 49.2C840 42.7 870 43.3 885 43.7L900 44L900 0L885 0C870 0 840 0 810 0C780 0 750 0 720 0C690 0 660 0 630 0C600 0 570 0 540 0C510 0 480 0 450 0C420 0 390 0 360 0C330 0 300 0 270 0C240 0 210 0 180 0C150 0 120 0 90 0C60 0 30 0 15 0L0 0Z"/></svg>